<svg width="24" height="24" viewBox="0 0 24 24" fill="none" xmlns="http://www.w3.org/2000/svg">
<path fill-rule="evenodd" clip-rule="evenodd" d="M9 0C9.55228 0 10 0.447715 10 1V2C10 3.65672 11.3433 5 13 5H14C14.5523 5 15 5.44772 15 6C15 6.55228 14.5523 7 14 7H13C10.2387 7 8 4.76128 8 2V1C8 0.447715 8.44772 0 9 0Z" fill="white"/>
<path fill-rule="evenodd" clip-rule="evenodd" d="M6.95852 16.005C7.11594 16.5344 6.81441 17.0912 6.28504 17.2486C3.80577 17.9858 2 20.2834 2 23.0001H0C0 19.3748 2.41023 16.3143 5.71496 15.3315C6.24434 15.1741 6.8011 15.4756 6.95852 16.005Z" fill="white"/>
<path fill-rule="evenodd" clip-rule="evenodd" d="M13 6C13 5.44772 13.4477 5 14 5H17C20.8653 5 24 8.13472 24 12V13C24 17.4183 20.4183 21 16 21H9.5C7.01472 21 5 18.9853 5 16.5C5 14.0147 7.01472 12 9.5 12C11.4327 12 13 10.4327 13 8.5V6ZM15 7V8.5C15 11.5373 12.5373 14 9.5 14C8.11928 14 7 15.1193 7 16.5C7 17.8807 8.11928 19 9.5 19H16C19.3137 19 22 16.3137 22 13V12C22 9.23928 19.7607 7 17 7H15Z" fill="white"/>
</svg>
