<svg width="24" height="24" viewBox="0 0 24 24" fill="none" xmlns="http://www.w3.org/2000/svg">
<path fill-rule="evenodd" clip-rule="evenodd" d="M7.43283 3C8.20144 1.24068 9.94661 0 12 0C14.0534 0 15.7986 1.24068 16.5672 3H19C20.6563 3 22 4.34372 22 6V21C22 22.6563 20.6563 24 19 24H5C3.34372 24 2 22.6563 2 21V12V6C2 4.34372 3.34372 3 5 3H7.43283ZM6.57143 13H4V21C4 21.5517 4.44828 22 5 22H19C19.5517 22 20 21.5517 20 21V6C20 5.44828 19.5517 5 19 5H15.858C15.4023 5 15.0042 4.69189 14.8899 4.25073C14.5537 2.95266 13.3877 2 12 2C10.6123 2 9.44626 2.95266 9.11006 4.25073C8.9958 4.69189 8.59772 5 8.142 5H5C4.44828 5 4 5.44828 4 6V11H5.97478L8.11998 7.02507C8.29047 6.70916 8.6172 6.50888 8.97607 6.50029C9.33494 6.4917 9.67088 6.67612 9.85629 6.98351L12.2789 11H16C16.5523 11 17 11.4477 17 12C17 12.5523 16.5523 13 16 13H11.7143C11.3639 13 11.039 12.8166 10.858 12.5165L9.04826 9.51614L7.45145 12.4749C7.27689 12.7984 6.93897 13 6.57143 13ZM15.2173 21C14.7339 21 14.4043 20.7056 14.4043 20.2749C14.4043 19.9497 14.5933 19.6597 15.1338 19.1543L16.4785 17.8887C16.9355 17.458 17.1377 17.1768 17.1377 16.8867C17.1377 16.5615 16.9004 16.3418 16.5576 16.3418C16.2939 16.3418 16.105 16.4473 15.8721 16.7373C15.604 17.0713 15.4106 17.1855 15.1162 17.1855C14.6943 17.1855 14.3955 16.9043 14.3955 16.5132C14.3955 15.6562 15.4282 14.9004 16.6543 14.9004C17.9331 14.9004 18.8867 15.6694 18.8867 16.7021C18.8867 17.3481 18.5439 17.9634 17.8452 18.583L16.8081 19.5059V19.5762H18.2803C18.79 19.5762 19.1064 19.8486 19.1064 20.2925C19.1064 20.7363 18.7988 21 18.2803 21H15.2173Z" fill="white"/>
<circle cx="12" cy="4" r="1" fill="white"/>
</svg>
