<svg width="24" height="24" viewBox="0 0 24 24" fill="none" xmlns="http://www.w3.org/2000/svg">
<path fill-rule="evenodd" clip-rule="evenodd" d="M14.7958 11.7127C14.7661 11.473 14.6992 11.2291 14.5759 11C14.3569 10.5934 14.1478 10.4348 13.8667 10.2216C13.4566 9.9106 12.8934 9.48345 11.9231 8H5.00006C5.00006 9.48059 4.97769 10.8717 4.9566 12.1828C4.878 17.0704 4.81729 20.846 6.00004 24H15.4345C20.7765 22.2386 20.6736 15.9147 16.4948 13.8587C15.9288 13.5802 15.288 13.3801 14.5759 13.2801C14.5759 13.2801 14.8958 12.5194 14.7958 11.7127ZM12.7318 12.5058L12.7305 12.509L12.7288 12.513L12.726 12.5198L12.7225 12.5286C12.7209 12.5326 12.7212 12.5321 12.7225 12.5286C12.7225 12.5285 12.7224 12.5288 12.7225 12.5286C12.7256 12.521 12.7286 12.5134 12.7318 12.5058ZM12.8208 11.9423C12.8153 11.9395 12.8094 11.938 12.8149 11.9482C12.8099 11.9389 12.8078 11.934 12.8074 11.9341C12.8056 11.9347 12.8305 12.0161 12.8003 12.216C12.7849 12.3174 12.761 12.4087 12.7413 12.472C12.7322 12.5015 12.7252 12.5212 12.7225 12.5286C12.4928 13.095 12.5346 13.7358 12.8369 14.268C13.1434 14.8077 13.6832 15.1744 14.2979 15.2607C16.3341 15.5464 17.3876 16.9583 17.5279 18.3982C17.6584 19.7367 17.0087 21.2524 15.0885 22H7.47487C7.13246 20.6052 6.98281 19.0027 6.93697 17.0774C6.90139 15.5826 6.92694 14.0239 6.95545 12.2847C6.96737 11.5575 6.97981 10.7988 6.98851 10H10.8803C11.4842 10.8061 11.9713 11.273 12.413 11.6256C12.7047 11.8584 12.7971 11.926 12.8208 11.9423ZM12.8277 11.9467C12.8272 11.9462 12.8254 11.945 12.8233 11.9437C12.8275 11.9465 12.8284 11.9472 12.8277 11.9467Z" fill="white"/>
<path fill-rule="evenodd" clip-rule="evenodd" d="M10 8C11.6569 8 13 6.65685 13 5C13 3.34315 11.6569 2 10 2C8.34315 2 7 3.34315 7 5C7 6.65685 8.34315 8 10 8ZM10 10C12.7614 10 15 7.76142 15 5C15 2.23858 12.7614 0 10 0C7.23858 0 5 2.23858 5 5C5 7.76142 7.23858 10 10 10Z" fill="white"/>
<path d="M5.2 17.2667L5.74712 17.9962C6.01832 18.3578 6.59202 18.2025 6.64383 17.7535L8 6L13 2L12.0979 1.09793C12.0338 1.03385 11.9536 0.98839 11.8656 0.966411L10 0.5L7.5 1L6 2.5L5 5V16.6667C5 16.883 5.07018 17.0936 5.2 17.2667Z" fill="white"/>
</svg>
