<svg width="24" height="24" viewBox="0 0 24 24" fill="none" xmlns="http://www.w3.org/2000/svg">
<path fill-rule="evenodd" clip-rule="evenodd" d="M17 2H19C19.5523 2 20 2.44772 20 3V6C20 7.10457 19.1046 8 18 8C16.8954 8 16 7.10457 16 6V3C16 2.44772 16.4477 2 17 2ZM14 3C14 1.34315 15.3431 0 17 0H19C20.6569 0 22 1.34315 22 3V6C22 7.86383 20.7252 9.42992 19 9.87397V15.0738C19 17.9563 18.0434 20.2054 16.5216 21.7355C15.0085 23.2569 12.9965 24.006 10.997 24C8.99774 23.9939 6.9884 23.2329 5.47778 21.7109C5.08313 21.3133 4.72636 20.8677 4.4144 20.3758C3.01634 20.1551 1.65802 19.6405 0.445297 18.832C0.167096 18.6466 -5.18512e-06 18.3343 1.20673e-10 18V4.99996C1.1683e-05 4.66562 0.167111 4.3534 0.445299 4.16795C3.78119 1.94402 8.21879 1.94402 11.5547 4.16794C11.8329 4.35341 12 4.66564 12 5V7.45356C13.1332 8.43456 13.85 9.88356 13.85 11.5C13.85 13.1164 13.1332 14.5654 12 15.5464V18C12 18.3344 11.8329 18.6466 11.5547 18.832C10.1864 19.7443 8.63264 20.2823 7.04563 20.4462C8.14207 21.4736 9.56796 21.9956 11.0031 22C12.5035 22.0045 13.9915 21.4432 15.1035 20.3252C16.2067 19.216 17 17.4967 17 15.0738V9.87399C15.2748 9.42996 14 7.86385 14 6V3ZM10 16.6369C9.52408 16.7756 9.02074 16.85 8.50002 16.85C5.5453 16.85 3.15002 14.4547 3.15002 11.5C3.15002 8.54527 5.5453 6.14999 8.50002 6.14999C9.02074 6.14999 9.52408 6.22439 10 6.36312V5.55634C7.54478 4.14789 4.4552 4.14789 2 5.55633V17.4437C4.4552 18.8521 7.54478 18.8521 10 17.4437V16.6369ZM8.50002 7.84999C6.48419 7.84999 4.85002 9.48415 4.85002 11.5C4.85002 13.5158 6.48419 15.15 8.50002 15.15C10.5159 15.15 12.15 13.5158 12.15 11.5C12.15 9.48415 10.5159 7.84999 8.50002 7.84999ZM10.5303 9.46967C10.8232 9.76256 10.8232 10.2374 10.5303 10.5303L9.03033 12.0303C8.73744 12.3232 8.26256 12.3232 7.96967 12.0303C7.67678 11.7374 7.67678 11.2626 7.96967 10.9697L9.46967 9.46967C9.76256 9.17678 10.2374 9.17678 10.5303 9.46967Z" fill="white"/>
</svg>
