<svg width="24" height="24" viewBox="0 0 24 24" fill="none" xmlns="http://www.w3.org/2000/svg">
<path fill-rule="evenodd" clip-rule="evenodd" d="M6 6.00024C4.34328 6.00024 3 7.34353 3 9.00024V14.0002C3 14.5525 2.55228 15.0002 2 15.0002C1.44772 15.0002 1 14.5525 1 14.0002V9.00024C1 6.23896 3.23872 4.00024 6 4.00024C8.76128 4.00024 11 6.23896 11 9.00024V14.0002C11 14.5525 10.5523 15.0002 10 15.0002C9.44772 15.0002 9 14.5525 9 14.0002V9.00024C9 7.34353 7.65672 6.00024 6 6.00024Z" fill="white"/>
<path fill-rule="evenodd" clip-rule="evenodd" d="M1 14.0002C1 13.448 1.44772 13.0002 2 13.0002H10C10.5523 13.0002 11 13.448 11 14.0002V19.0002C11 21.7615 8.76128 24.0002 6 24.0002C3.23872 24.0002 1 21.7615 1 19.0002V14.0002ZM3 15.0002V19.0002C3 20.657 4.34328 22.0002 6 22.0002C7.65672 22.0002 9 20.657 9 19.0002V15.0002H3Z" fill="white"/>
<path fill-rule="evenodd" clip-rule="evenodd" d="M17.2093 3.92456C16.6146 2.37746 14.8785 1.60625 13.3317 2.20112C11.7854 2.79579 11.0143 4.53106 11.6091 6.07778C11.6091 6.07779 11.6091 6.0778 11.6091 6.07781L13.4041 10.7448C13.6023 11.2603 13.3452 11.8388 12.8297 12.0371C12.3142 12.2354 11.7356 11.9782 11.5374 11.4627L9.74239 6.79574L9.74238 6.79571C8.75122 4.21844 10.0361 1.32572 12.6138 0.334401C15.191 -0.656736 18.0848 0.62806 19.0761 3.20696L20.8711 7.87271C21.0693 8.38817 20.8122 8.96678 20.2968 9.16508C19.7813 9.36337 19.2027 9.10626 19.0044 8.5908L17.2094 3.9248L17.2093 3.92456Z" fill="white"/>
<path fill-rule="evenodd" clip-rule="evenodd" d="M20.3431 7.31787C20.5855 7.42558 20.7751 7.62516 20.8703 7.87271L22.6653 12.5397L22.6653 12.5397C23.6565 15.117 22.3716 18.0097 19.7939 19.001C17.2167 19.9922 14.324 18.7073 13.3326 16.1297C13.3326 16.1297 13.3326 16.1296 13.3326 16.1296L11.5376 11.4627C11.3394 10.9472 11.5965 10.3686 12.1119 10.1704L19.5779 7.29836C19.8255 7.20314 20.1007 7.21016 20.3431 7.31787ZM13.7633 11.678L15.1993 15.4117L15.1993 15.4117C15.794 16.9581 17.5293 17.7292 19.076 17.1343C20.6223 16.5397 21.3934 14.8044 20.7986 13.2577C20.7986 13.2577 20.7986 13.2576 20.7986 13.2576L19.3626 9.52406L13.7633 11.678Z" fill="white"/>
</svg>
