<svg width="24" height="24" viewBox="0 0 24 24" fill="none" xmlns="http://www.w3.org/2000/svg">
<path fill-rule="evenodd" clip-rule="evenodd" d="M16 2H8C7.44772 2 7 2.44772 7 3V6C7 6.55228 7.44772 7 8 7H16C16.5523 7 17 6.55228 17 6V3C17 2.44772 16.5523 2 16 2ZM8 0C6.34315 0 5 1.34315 5 3V6C5 7.65685 6.34315 9 8 9H16C17.6569 9 19 7.65685 19 6V3C19 1.34315 17.6569 0 16 0H8Z" fill="white"/>
<path fill-rule="evenodd" clip-rule="evenodd" d="M4.5 3C3.67157 3 3 3.67157 3 4.5C3 5.32843 3.67157 6 4.5 6H5.5C6.32843 6 7 5.32843 7 4.5C7 3.67157 6.32843 3 5.5 3H4.5Z" fill="white"/>
<path fill-rule="evenodd" clip-rule="evenodd" d="M18.5 3C17.6716 3 17 3.67157 17 4.5C17 5.32843 17.6716 6 18.5 6H19.5C20.3284 6 21 5.32843 21 4.5C21 3.67157 20.3284 3 19.5 3H18.5Z" fill="white"/>
<path fill-rule="evenodd" clip-rule="evenodd" d="M16 9H8C7.44772 9 7 9.44772 7 10V13C7 13.5523 7.44772 14 8 14H16C16.5523 14 17 13.5523 17 13V10C17 9.44772 16.5523 9 16 9ZM8 7C6.34315 7 5 8.34315 5 10V13C5 14.6569 6.34315 16 8 16H16C17.6569 16 19 14.6569 19 13V10C19 8.34315 17.6569 7 16 7H8Z" fill="white"/>
<path fill-rule="evenodd" clip-rule="evenodd" d="M4.5 10C3.67157 10 3 10.6716 3 11.5C3 12.3284 3.67157 13 4.5 13H5.5C6.32843 13 7 12.3284 7 11.5C7 10.6716 6.32843 10 5.5 10H4.5Z" fill="white"/>
<path fill-rule="evenodd" clip-rule="evenodd" d="M18.5 10C17.6716 10 17 10.6716 17 11.5C17 12.3284 17.6716 13 18.5 13H19.5C20.3284 13 21 12.3284 21 11.5C21 10.6716 20.3284 10 19.5 10H18.5Z" fill="white"/>
<path fill-rule="evenodd" clip-rule="evenodd" d="M16 16H8C7.44772 16 7 16.4477 7 17V20C7 20.5523 7.44772 21 8 21H16C16.5523 21 17 20.5523 17 20V17C17 16.4477 16.5523 16 16 16ZM8 14C6.34315 14 5 15.3431 5 17V20C5 21.6569 6.34315 23 8 23H16C17.6569 23 19 21.6569 19 20V17C19 15.3431 17.6569 14 16 14H8Z" fill="white"/>
<path fill-rule="evenodd" clip-rule="evenodd" d="M4.5 17C3.67157 17 3 17.6716 3 18.5C3 19.3284 3.67157 20 4.5 20H5.5C6.32843 20 7 19.3284 7 18.5C7 17.6716 6.32843 17 5.5 17H4.5Z" fill="white"/>
<path fill-rule="evenodd" clip-rule="evenodd" d="M18.5 17C17.6716 17 17 17.6716 17 18.5C17 19.3284 17.6716 20 18.5 20H19.5C20.3284 20 21 19.3284 21 18.5C21 17.6716 20.3284 17 19.5 17H18.5Z" fill="white"/>
<path d="M8 7H11V9H8V7Z" fill="#F9F9F9"/>
<path d="M13 14H16V16H13V14Z" fill="#F9F9F9"/>
<path d="M9 18C9 17.4477 9.44772 17 10 17C10.5523 17 11 17.4477 11 18C11 18.5523 10.5523 19 10 19C9.44772 19 9 18.5523 9 18Z" fill="white"/>
<path d="M9 11C9 10.4477 9.44772 10 10 10C10.5523 10 11 10.4477 11 11C11 11.5523 10.5523 12 10 12C9.44772 12 9 11.5523 9 11Z" fill="white"/>
<path d="M9 4C9 3.44772 9.44772 3 10 3C10.5523 3 11 3.44772 11 4C11 4.55228 10.5523 5 10 5C9.44772 5 9 4.55228 9 4Z" fill="white"/>
</svg>
