<svg width="24" height="24" viewBox="0 0 24 24" fill="none" xmlns="http://www.w3.org/2000/svg">
<path fill-rule="evenodd" clip-rule="evenodd" d="M12 4C10.3433 4 9 5.34328 9 7C9 7.55228 8.55228 8 8 8C7.44772 8 7 7.55228 7 7C7 4.23872 9.23872 2 12 2C14.7613 2 17 4.23872 17 7C17 7.55228 16.5523 8 16 8C15.4477 8 15 7.55228 15 7C15 5.34328 13.6567 4 12 4Z" fill="white"/>
<path fill-rule="evenodd" clip-rule="evenodd" d="M12 0C12.5523 0 13 0.447715 13 1V3C13 3.55228 12.5523 4 12 4C11.4477 4 11 3.55228 11 3V1C11 0.447715 11.4477 0 12 0Z" fill="white"/>
<path fill-rule="evenodd" clip-rule="evenodd" d="M6 7C6 6.44772 6.44772 6 7 6H17C17.5523 6 18 6.44772 18 7C18 7.55228 17.5523 8 17 8H7C6.44772 8 6 7.55228 6 7Z" fill="white"/>
<path fill-rule="evenodd" clip-rule="evenodd" d="M5 14C5 13.4477 5.44772 13 6 13H10C10.5523 13 11 13.4477 11 14C11 14.5523 10.5523 15 10 15H6C5.44772 15 5 14.5523 5 14Z" fill="white"/>
<path fill-rule="evenodd" clip-rule="evenodd" d="M5 19C5 18.4477 5.44772 18 6 18H10C10.5523 18 11 18.4477 11 19C11 19.5523 10.5523 20 10 20H6C5.44772 20 5 19.5523 5 19Z" fill="white"/>
<path fill-rule="evenodd" clip-rule="evenodd" d="M8 11C7.44828 11 7 11.4483 7 12V21C7 21.5517 7.44828 22 8 22H16C16.5517 22 17 21.5517 17 21V12C17 11.4483 16.5517 11 16 11H8ZM5 12C5 10.3437 6.34372 9 8 9H16C17.6563 9 19 10.3437 19 12V21C19 22.6563 17.6563 24 16 24H8C6.34372 24 5 22.6563 5 21V12Z" fill="white"/>
</svg>
