<svg width="24" height="24" viewBox="0 0 24 24" fill="none" xmlns="http://www.w3.org/2000/svg">
<path fill-rule="evenodd" clip-rule="evenodd" d="M0 1C0 0.447715 0.447715 0 1 0H3C4.10528 0 5 0.894715 5 2V5C5 6.10528 4.10528 7 3 7H1C0.447715 7 0 6.55228 0 6C0 5.44772 0.447715 5 1 5H3V2H1C0.447715 2 0 1.55228 0 1Z" fill="white"/>
<path fill-rule="evenodd" clip-rule="evenodd" d="M9 2C9 0.894715 9.89472 0 11 0H13C13.5523 0 14 0.447715 14 1C14 1.55228 13.5523 2 13 2H11V5H13C13.5523 5 14 5.44772 14 6C14 6.55228 13.5523 7 13 7H11C9.89472 7 9 6.10528 9 5V2Z" fill="white"/>
<path fill-rule="evenodd" clip-rule="evenodd" d="M7 12C7.55228 12 8 12.4477 8 13V16.5C8 19.5377 10.4623 22 13.5 22C16.5377 22 19 19.5377 19 16.5V14C19 13.4477 19.4477 13 20 13C20.5523 13 21 13.4477 21 14V16.5C21 20.6423 17.6423 24 13.5 24C9.35772 24 6 20.6423 6 16.5V13C6 12.4477 6.44772 12 7 12Z" fill="white"/>
<path fill-rule="evenodd" clip-rule="evenodd" d="M16 11C16 8.79072 17.7907 7 20 7C22.2093 7 24 8.79072 24 11C24 13.2093 22.2093 15 20 15C17.7907 15 16 13.2093 16 11ZM20 9C18.8953 9 18 9.89528 18 11C18 12.1047 18.8953 13 20 13C21.1047 13 22 12.1047 22 11C22 9.89528 21.1047 9 20 9Z" fill="white"/>
<path fill-rule="evenodd" clip-rule="evenodd" d="M1 0C1.55228 0 2 0.447715 2 1V7C2 9.76072 4.23928 12 7 12C9.76072 12 12 9.76072 12 7V1C12 0.447715 12.4477 0 13 0C13.5523 0 14 0.447715 14 1V7C14 10.8653 10.8653 14 7 14C3.13472 14 0 10.8653 0 7V1C0 0.447715 0.447715 0 1 0Z" fill="white"/>
</svg>
