<svg width="25" height="24" viewBox="0 0 25 24" fill="none" xmlns="http://www.w3.org/2000/svg">
<path fill-rule="evenodd" clip-rule="evenodd" d="M22.5 12.5987V13.8004C22.5 15.3227 21.2976 16.5866 19.7341 16.7784C19.549 18.6312 18.6612 19.8628 17.3537 20.5825C16.7904 20.8922 16.1929 21.0778 15.6025 21.1725C15.2986 21.9595 14.5043 22.5 13.6013 22.5H12.2567C11.0862 22.5 10.126 21.5939 10.126 20.4769C10.126 19.3605 11.0855 18.458 12.2567 18.458H13.5969C14.4466 18.458 15.2032 18.934 15.5429 19.6495C16.8919 19.3812 17.9146 18.5297 18.1475 16.8025H17.6755C17.2459 16.8025 16.8894 16.4672 16.8894 16.0483V10.3508C16.8894 9.93192 17.2459 9.59664 17.6755 9.59664H18.1939V9.08613C18.1939 5.90041 15.7905 3.5084 12.5873 3.5084H11.9127C8.71241 3.5084 6.30612 5.902 6.30612 9.08613V9.59664H6.82449C7.25409 9.59664 7.61056 9.93192 7.61056 10.3508V16.0525C7.61056 16.4714 7.25409 16.8067 6.82449 16.8067H5.17606C3.42862 16.8067 2 15.463 2 13.8046V12.6029C2 11.0929 3.18648 9.83567 4.73397 9.62859V9.08613C4.73397 7.18165 5.45119 5.40789 6.75384 4.09112C8.08731 2.74112 9.92025 2 11.9172 2H12.5917C14.5887 2 16.4216 2.74112 17.7549 4.09099C19.0577 5.40789 19.775 7.18165 19.775 9.08613V9.62806C21.3203 9.8317 22.5046 11.0911 22.5 12.5987ZM6.04735 11.105L5.185 11.105C4.29676 11.105 3.58108 11.7782 3.58108 12.5987V13.8004C3.58108 14.621 4.29676 15.2941 5.185 15.2941H6.04735V11.105ZM19.3284 15.2941C20.2166 15.2941 20.9323 14.621 20.9323 13.8004V12.5987C20.9323 11.7782 20.2166 11.105 19.3284 11.105H18.466L18.466 15.2941H19.3284Z" fill="white"/>
</svg>
