<svg width="24" height="24" viewBox="0 0 24 24" fill="none" xmlns="http://www.w3.org/2000/svg">
<path fill-rule="evenodd" clip-rule="evenodd" d="M2 1C2 0.447715 2.44772 0 3 0H21C21.5523 0 22 0.447715 22 1C22 1.55228 21.5523 2 21 2H3C2.44772 2 2 1.55228 2 1Z" fill="white"/>
<path fill-rule="evenodd" clip-rule="evenodd" d="M20 0C20.5523 0 21 0.447715 21 1V12C21 12.5523 20.5523 13 20 13C19.4477 13 19 12.5523 19 12V1C19 0.447715 19.4477 0 20 0Z" fill="white"/>
<path fill-rule="evenodd" clip-rule="evenodd" d="M4 0C4.55228 0 5 0.447715 5 1V12C5 12.5523 4.55228 13 4 13C3.44772 13 3 12.5523 3 12V1C3 0.447715 3.44772 0 4 0Z" fill="white"/>
<path fill-rule="evenodd" clip-rule="evenodd" d="M8 3.99023C8.55228 3.99023 9 4.43795 9 4.99023V5.00023C9 5.55252 8.55228 6.00023 8 6.00023C7.44772 6.00023 7 5.55252 7 5.00023V4.99023C7 4.43795 7.44772 3.99023 8 3.99023Z" fill="white"/>
<path fill-rule="evenodd" clip-rule="evenodd" d="M1 12C1 11.4477 1.44772 11 2 11H22C22.5523 11 23 11.4477 23 12C23 12.5523 22.5523 13 22 13H2C1.44772 13 1 12.5523 1 12Z" fill="white"/>
<path fill-rule="evenodd" clip-rule="evenodd" d="M21 11C21.5523 11 22 11.4477 22 12C22 15.3776 20.1373 18.3136 17.3899 19.8515L17.9805 22.8038C18.0889 23.3454 17.7377 23.8722 17.1961 23.9806C16.6546 24.0889 16.1277 23.7377 16.0194 23.1962L15.2794 19.4972C15.1878 19.0391 15.4254 18.5787 15.8519 18.3881C18.2981 17.2946 20 14.8462 20 12C20 11.4477 20.4477 11 21 11Z" fill="white"/>
<path fill-rule="evenodd" clip-rule="evenodd" d="M3 11C3.55228 11 4 11.4477 4 12C4 14.8462 5.7019 17.2946 8.14808 18.3881C8.57453 18.5787 8.8122 19.0391 8.72057 19.4972L7.98057 23.1962C7.87223 23.7377 7.34539 24.0889 6.80383 23.9806C6.26228 23.8722 5.91109 23.3454 6.01943 22.8038L6.61006 19.8515C3.86271 18.3136 2 15.3776 2 12C2 11.4477 2.44772 11 3 11Z" fill="white"/>
</svg>
